<?xml version="1.0" encoding="utf-8"?>
<!-- Generator: Adobe Illustrator 28.0.0, SVG Export Plug-In . SVG Version: 6.00 Build 0)  -->
<svg version="1.1" id="Layer_1" xmlns="http://www.w3.org/2000/svg" xmlns:xlink="http://www.w3.org/1999/xlink" x="0px" y="0px"
	 viewBox="0 0 181 96" style="enable-background:new 0 0 181 96;" xml:space="preserve">
<style type="text/css">
	.st0{fill:#9AEDFF;}
	.st1{fill:#0B005F;}
</style>
<g>
	<g>
		<rect x="92.76" y="9.25" class="st0" width="29" height="79"/>
		<path d="M121.26,9.75v78h-28v-78H121.26 M122.26,8.75h-30v80h30V8.75L122.26,8.75z"/>
	</g>
	<g>
		
			<rect x="141.83" y="3.66" transform="matrix(0.8114 -0.5844 0.5844 0.8114 -1.119 95.0085)" class="st1" width="9.7" height="91.15"/>
		<path d="M123.86,10.12l52.68,73.15l-7.06,5.08L116.81,15.2L123.86,10.12 M124.09,8.72l-8.68,6.25l53.85,74.78l8.68-6.25
			L124.09,8.72L124.09,8.72z"/>
	</g>
	<g>
		
			<rect x="103.11" y="45.76" transform="matrix(0.6457 -0.7636 0.7636 0.6457 13.6314 130.8845)" class="st1" width="89.49" height="9.99"/>
		<path d="M172.99,14.06l6.87,5.81l-57.14,67.57l-6.87-5.81L172.99,14.06 M172.87,12.65l-58.43,69.1l8.4,7.1l58.43-69.1
			L172.87,12.65L172.87,12.65z"/>
	</g>
	<g>
		<polygon class="st1" points="74.79,88.63 95.1,8.63 102.03,11.72 81.72,91.73 		"/>
		<path d="M95.43,9.33l6,2.68L81.38,91.03l-6-2.68L95.43,9.33 M94.76,7.93L74.2,88.92l7.86,3.51l20.55-80.99L94.76,7.93L94.76,7.93z
			"/>
	</g>
	<g>
		<polygon class="st1" points="50.32,10.12 57.11,6.48 80.98,84.71 74.2,88.36 		"/>
		<path d="M56.81,7.21l23.58,77.26l-5.89,3.16L50.92,10.37L56.81,7.21 M57.41,5.75l-7.68,4.13L73.9,89.08l7.68-4.13L57.41,5.75
			L57.41,5.75z"/>
	</g>
	<g>
		<polygon class="st1" points="27.82,91.16 50.22,2.92 57.95,6.37 35.55,94.61 		"/>
		<path d="M50.56,3.62l6.8,3.04L35.21,93.91l-6.8-3.04L50.56,3.62 M49.88,2.22L27.24,91.44l8.66,3.87L58.54,6.09L49.88,2.22
			L49.88,2.22z"/>
	</g>
	<g>
		<polygon class="st1" points="0.86,4.61 8.43,0.55 34.76,86.84 27.2,90.9 		"/>
		<path d="M8.13,1.28l26.04,85.31l-6.67,3.58L1.46,4.86L8.13,1.28 M8.73-0.18L0.26,4.36L26.9,91.63l8.47-4.55L8.73-0.18L8.73-0.18z"
			/>
	</g>
</g>
</svg>
